<?xml version="1.0" encoding="utf-8"?>
<svg viewBox="0 0 64 64" width="64" height="64" xmlns="http://www.w3.org/2000/svg">
  <path d="M 32 32 C 38.63 32 44 26.63 44 20 C 44 13.37 38.63 8 32 8 C 25.37 8 20 13.37 20 20 C 20 26.63 25.37 32 32 32 Z M 32 38 C 23.99 38 8 42.02 8 50 L 8 56 L 56 56 L 56 50 C 56 42.02 40.01 38 32 38 Z" style="fill: rgb(255, 255, 255);" transform="matrix(1, 0, 0, 1, 7.105427357601002e-15, 0)"/>
  <path d="M 0 0 L 24 0 L 24 24 L 0 24 L 0 0 Z" fill="none" transform="matrix(1, 0, 0, 1, 7.105427357601002e-15, 0)"/>
</svg>